HIERARCHY
ROOT Hips
{
	OFFSET 0.000000 0.000000 0.000000
	CHANNELS 6 Xposition Yposition Zposition Zrotation Yrotation Xrotation 
	JOINT LHipJoint
	{
		OFFSET 0.000000 0.000000 0.000000
		CHANNELS 3 Zrotation Yrotation Xrotation
		JOINT LeftUpLeg
		{
			OFFSET 1.363060 -1.794630 0.839290
			CHANNELS 3 Zrotation Yrotation Xrotation
			JOINT LeftLeg
			{
				OFFSET 2.448110 -6.726130 0.000000
				CHANNELS 3 Zrotation Yrotation Xrotation
				JOINT LeftFoot
				{
					OFFSET 2.562200 -7.039590 0.000000
					CHANNELS 3 Zrotation Yrotation Xrotation
					JOINT LeftToeBase
					{
						OFFSET 0.157640 -0.433110 2.322550
						CHANNELS 3 Zrotation Yrotation Xrotation
						End Site
						{
							OFFSET 0.000000 0.000000 0.000000
						}
					}
				}
			}
		}
	}
	JOINT RHipJoint
	{
		OFFSET 0.000000 0.000000 0.000000
		CHANNELS 3 Zrotation Yrotation Xrotation
		JOINT RightUpLeg
		{
			OFFSET -1.305520 -1.794630 0.839290
			CHANNELS 3 Zrotation Yrotation Xrotation
			JOINT RightLeg
			{
				OFFSET -2.542530 -6.985550 0.000000
				CHANNELS 3 Zrotation Yrotation Xrotation
				JOINT RightFoot
				{
					OFFSET -2.568260 -7.056230 0.000000
					CHANNELS 3 Zrotation Yrotation Xrotation
					JOINT RightToeBase
					{
						OFFSET -0.164730 -0.452590 2.363150
						CHANNELS 3 Zrotation Yrotation Xrotation
						End Site
						{
							OFFSET 0.000000 0.000000 0.000000
						}
					}
				}
			}
		}
	}
}
MOTION
Frames: 17
Frame Time: 0.008333
4.669031 17.395630 0.650838 -178.511966 -83.673355 -167.146820 -10.262894 0.303159 1.238375 -9.854761 1.865222 -38.735940 -0.929766 1.542592 37.114166 3.021837 16.462007 -6.680065 0.763699 0.000000 -27.979600 8.036735 -1.577300 2.670920 12.608594 5.365431 -9.456957 3.450237 1.674313 1.309336 0.157424 3.076393 -6.753062 -0.023600 0.000000 -15.222800
4.493102 17.377201 0.630666 -178.118420 -83.484676 -167.501841 -10.156600 0.206330 1.384129 -9.847446 1.739197 -39.164679 -1.064562 1.332963 34.283571 2.984275 16.099855 -6.259190 0.918100 -0.000000 -28.241600 8.055906 -1.594829 2.562208 12.654681 5.065497 -8.347769 3.478173 1.761161 0.531111 0.214608 3.504621 -6.918546 -0.006500 0.000000 -15.461400
4.316503 17.354029 0.612075 -177.426244 -83.311421 -168.151023 -10.060155 0.118867 1.531828 -9.809539 1.656659 -39.565580 -1.202067 1.117156 31.395643 2.919569 15.634534 -5.732880 1.088400 0.000000 -28.595700 8.068978 -1.610463 2.454501 12.734751 4.793905 -7.270820 3.506310 1.841874 -0.156547 0.263746 3.910863 -7.139301 0.005900 -0.000000 -15.761300
4.139424 17.326282 0.595175 -176.466645 -83.153182 -169.075719 -9.973789 0.038620 1.676214 -9.751470 1.627467 -39.930131 -1.345994 0.895089 28.469444 2.824461 15.047373 -5.152824 1.251600 -0.000000 -29.023100 8.075976 -1.624721 2.343124 12.850449 4.540151 -6.218186 3.535061 1.914423 -0.741485 0.304847 4.295668 -7.419017 0.012800 0.000001 -16.113100
3.961295 17.294188 0.580107 -175.211671 -83.006437 -170.295479 -9.896865 -0.036913 1.817930 -9.678778 1.657235 -40.277688 -1.499195 0.666516 25.529993 2.696589 14.318279 -4.563723 1.387700 0.000000 -29.545600 8.075093 -1.639383 2.234262 13.007483 4.318730 -5.201528 3.564890 1.979200 -1.216913 0.335312 4.642888 -7.764989 0.013600 0.000000 -16.450200
3.782209 17.258139 0.566857 -173.704073 -82.868101 -171.778726 -9.828525 -0.110681 1.951153 -9.605291 1.759327 -40.604976 -1.664931 0.431646 22.600174 2.532424 13.424183 -4.001264 1.479100 -0.000001 -30.167500 8.067414 -1.655457 2.124356 13.203583 4.116026 -4.212584 3.596042 2.034822 -1.578698 0.355602 4.954884 -8.177370 0.008100 0.000000 -16.744900
3.601896 17.218598 0.555263 -171.983830 -82.734364 -173.486597 -9.767607 -0.185256 2.072559 -9.547058 1.946146 -40.922471 -1.845657 0.191167 19.705578 2.329470 12.345814 -3.483359 1.515500 0.000000 -30.919900 8.053649 -1.674717 2.014748 13.435055 3.926288 -3.251741 3.628646 2.081107 -1.827492 0.365669 5.230815 -8.656228 -0.003300 0.000000 -16.946101
3.420001 17.176096 0.545082 -170.106921 -82.600667 -175.360131 -9.712830 -0.262718 2.180961 -9.522875 2.227430 -41.250136 -2.042895 -0.053820 16.870117 2.087195 11.073823 -3.007600 1.494800 -0.000000 -31.851600 8.034286 -1.699048 1.910514 13.694859 3.751310 -2.326490 3.662419 2.118568 -1.968801 0.365327 5.467519 -9.197876 -0.020100 0.000001 -17.019000
3.236623 17.131199 0.535885 -168.176010 -82.465957 -177.307736 -9.662911 -0.344059 2.269198 -9.561367 2.619373 -41.589120 -2.258078 -0.300460 14.121029 1.806054 9.603711 -2.563552 1.417600 0.000000 -32.976300 8.012294 -1.729239 1.807082 13.968144 3.563662 -1.424725 3.697238 2.146625 -2.011056 0.357929 5.684587 -9.792161 -0.042000 0.000000 -16.951900
3.051353 17.084474 0.527248 -166.283535 -82.327788 -179.231124 -9.616223 -0.428718 2.338285 -9.686563 3.121371 -41.961183 -2.490268 -0.546296 11.480578 1.491870 7.955254 -2.125148 1.292300 -0.000001 -34.325601 7.989213 -1.766575 1.709467 14.239396 3.361253 -0.555109 3.732358 2.165936 -1.965687 0.345559 5.889259 -10.421759 -0.068300 0.000000 -16.800701
2.864361 17.036450 0.518718 -164.539393 -82.189519 178.967972 -9.570541 -0.514812 2.382385 -9.928998 3.737967 -42.367872 -2.738134 -0.786437 8.982563 1.151860 6.150949 -1.675792 1.123800 -0.000000 -35.876600 7.969300 -1.810555 1.611221 14.487072 3.110402 0.295440 3.767458 2.175972 -1.843896 0.333847 6.113201 -11.067819 -0.100000 -0.000000 -16.598200
2.675366 16.987670 0.509959 -163.013846 -82.052870 177.367476 -9.523353 -0.599399 2.407659 -10.297503 4.438850 -42.822526 -2.995373 -1.018480 6.644499 0.801081 4.254973 -1.196555 0.923500 0.000000 -37.616800 7.955002 -1.861156 1.515366 14.693181 2.809866 1.117976 3.801492 2.176891 -1.657997 0.326497 6.368719 -11.700720 -0.137800 -0.000000 -16.496400
2.484469 16.938497 0.500612 -161.769522 -81.925671 176.023779 -9.471972 -0.678498 2.414148 -10.799981 5.198932 -43.320418 -3.255731 -1.237638 4.500705 0.453762 2.326471 -0.692979 0.697200 0.000000 -39.481300 7.950825 -1.917331 1.414961 14.837530 2.431848 1.921713 3.834005 2.167647 -1.416402 0.329686 6.687549 -12.294716 -0.184400 -0.000000 -16.587300
2.291968 16.889290 0.490499 -160.839202 -81.815585 174.966873 -9.414378 -0.748312 2.407763 -11.421246 5.970308 -43.851586 -3.509620 -1.440725 2.574505 0.126922 0.449817 -0.181779 0.455800 0.000000 -41.405500 7.960295 -1.978041 1.304983 14.903448 1.961442 2.707212 3.864271 2.146464 -1.123472 0.348559 7.091531 -12.817816 -0.242300 0.000000 -17.042699
2.097336 16.840328 0.479775 -160.132999 -81.725682 174.128202 -9.351316 -0.807299 2.402166 -12.108333 6.689370 -44.413450 -3.744713 -1.626778 0.879252 -0.162477 -1.272572 0.309618 0.215300 -0.000001 -43.331600 7.980948 -2.043264 1.191995 14.899737 1.435407 3.465890 3.891846 2.114483 -0.789848 0.381418 7.562330 -13.254896 -0.310800 -0.000000 -17.867200
1.901105 16.791801 0.468282 -159.681286 -81.665967 173.522984 -9.283214 -0.851944 2.397359 -12.832614 7.320802 -44.968552 -3.954170 -1.791365 -0.556230 -0.405586 -2.776344 0.734965 -0.010701 -0.000000 -45.167300 8.017109 -2.112139 1.062948 14.809907 0.818783 4.209410 3.916228 2.067419 -0.407904 0.434109 8.129710 -13.573125 -0.391500 0.000000 -19.278400
1.702984 16.743935 0.456349 -159.351443 -81.635175 173.035580 -9.213782 -0.883500 2.402488 -13.527103 7.823626 -45.506333 -4.129967 -1.932876 -1.717243 -0.595774 -3.994774 1.054481 -0.203600 -0.000000 -46.862999 8.063010 -2.184894 0.926327 14.658605 0.165289 4.933971 3.937156 2.006487 0.016226 0.500677 8.753949 -13.771964 -0.479400 0.000000 -21.172200
